# Blender v2.79 (sub 0) OBJ File: 'mushroom.blend'
# www.blender.org
mtllib mushroom.mtl
o mushroom_Cylinder.001
v -0.790418 0.789441 0.045089
v 0.173295 0.022601 4.723266
v -1.140813 0.308734 1.601238
v -0.846828 0.310494 4.794082
v -0.753868 0.890256 1.569957
v -0.483479 0.856554 4.764709
v -0.099765 1.132550 1.521819
v 0.130735 1.084073 4.719506
v 0.571649 0.943067 1.475210
v 0.761206 0.906145 4.675739
v 1.003918 0.394183 1.447934
v 1.167114 0.390733 4.650126
v 1.031930 -0.304446 1.450408
v 1.193418 -0.265293 4.652450
v 0.644984 -0.885968 1.481689
v 0.830069 -0.811353 4.681823
v -0.009118 -1.128262 1.529827
v 0.215855 -1.038871 4.727026
v -0.680533 -0.938779 1.576436
v -0.414616 -0.860943 4.770792
v -1.112802 -0.389895 1.603713
v -0.820525 -0.345531 4.796406
v -1.283682 0.427614 4.590537
v -0.770638 1.198645 4.549063
v 0.096626 1.519898 4.485237
v 0.986843 1.268666 4.423439
v 1.559982 0.540910 4.387273
v 1.597122 -0.385391 4.390554
v 1.084077 -1.156422 4.432029
v 0.216814 -1.477675 4.495854
v -0.673404 -1.226442 4.557652
v -1.246543 -0.498687 4.593818
v -1.439025 1.791595 1.938335
v -0.122604 2.279227 1.841453
v 1.228660 1.897881 1.747650
v 2.098628 0.793219 1.692754
v 2.155003 -0.612816 1.697734
v 1.376251 -1.783166 1.760688
v 0.059830 -2.270797 1.857570
v -1.291434 -1.889451 1.951373
v -2.161402 -0.784788 2.006269
v -2.217777 0.621246 2.001289
v -2.134840 0.628695 3.165724
v -1.361844 1.778520 3.103311
v -0.048979 2.253466 3.006764
v 1.302285 1.872121 2.912960
v 2.175809 0.780144 2.857730
v 2.237939 -0.605366 2.862169
v 1.464942 -1.755191 2.924582
v 0.152078 -2.230137 3.021129
v -1.199186 -1.848791 3.114932
v -2.072711 -0.756813 3.170163
v -0.136520 -0.219345 2.204753
v -0.093723 -0.169778 2.169010
v -0.854965 0.881175 0.150540
v -1.241910 0.299652 0.181821
v -0.200863 1.123469 0.102402
v 0.470552 0.933986 0.055793
v 0.902821 0.385102 0.028516
v 0.930832 -0.313527 0.030991
v 0.543887 -0.895049 0.062271
v -0.110215 -1.137343 0.110410
v -0.781630 -0.947860 0.157019
v -1.213899 -0.398976 0.184295
v -0.162727 -0.007583 0.005481
v -1.137677 0.267562 0.073161
v -0.203403 1.006885 0.001888
v 0.399149 0.836836 -0.039941
v 0.787083 0.344248 -0.064420
v 0.812222 -0.282728 -0.062199
v 0.464963 -0.804607 -0.034127
v -0.122052 -1.022050 0.009075
v -0.724604 -0.852001 0.050903
v -1.112539 -0.359413 0.075382
vt 0.049276 0.897261
vt 0.086103 0.628829
vt 0.086624 0.896111
vt 0.744931 0.239092
vt 0.773711 0.214700
vt 0.782872 0.236458
vt 0.787883 0.202862
vt 0.801921 0.235775
vt 0.160860 0.895693
vt 0.198722 0.629302
vt 0.198078 0.896585
vt 0.753795 0.202858
vt 0.758130 0.185314
vt 0.349385 0.899415
vt 0.386648 0.631241
vt 0.387300 0.898523
vt 0.731129 0.204813
vt 0.725143 0.188681
vt 0.273330 0.898997
vt 0.311458 0.632313
vt 0.311330 0.899596
vt 0.713177 0.219031
vt 0.698365 0.208472
vt 0.235554 0.897847
vt 0.236282 0.630564
vt 0.706990 0.241727
vt 0.687941 0.242409
vt 0.123642 0.628230
vt 0.123766 0.895512
vt 0.716151 0.263484
vt 0.701978 0.275322
vt 0.424219 0.629979
vt 0.424943 0.897261
vt 0.736066 0.275327
vt 0.731732 0.292870
vt 0.161179 0.628411
vt 0.758733 0.273372
vt 0.764719 0.289504
vt 0.349058 0.632132
vt 0.776685 0.259154
vt 0.791497 0.269713
vt 0.273862 0.631714
vt 0.856945 0.309015
vt 0.875780 0.232125
vt 0.792331 0.361177
vt 0.708501 0.366768
vt 0.640522 0.320356
vt 0.614082 0.246060
vt 0.632917 0.169169
vt 0.697531 0.117008
vt 0.781360 0.111417
vt 0.849340 0.157828
vt 0.123714 0.954397
vt 0.086404 0.955602
vt 0.424635 0.957917
vt 0.387022 0.960456
vt 0.349245 0.962251
vt 0.311385 0.962615
vt 0.273557 0.961409
vt 0.235864 0.959095
vt 0.160994 0.954760
vt 0.985731 0.226546
vt 0.921297 0.091969
vt 0.802981 0.026149
vt 0.669002 0.026149
vt 0.552521 0.108279
vt 0.504131 0.251638
vt 0.568565 0.386216
vt 0.686881 0.452035
vt 0.820860 0.452035
vt 0.937341 0.369906
vt 0.349035 0.612937
vt 0.386602 0.612137
vt 0.048500 0.611004
vt 0.086066 0.609972
vt 0.273899 0.612562
vt 0.161201 0.609597
vt 0.198768 0.610397
vt 0.424167 0.611004
vt 0.236333 0.611530
vt 0.123633 0.609435
vt 0.311467 0.613099
vt 0.039642 0.423433
vt 0.415310 0.423433
vt 0.048551 0.629979
vt 0.048968 0.957917
vt 0.198351 0.956555
vn 0.2699 0.9626 -0.0254
vn 0.0710 0.0064 0.9975
vn -0.3438 0.2770 0.8973
vn -0.9967 -0.0397 0.0712
vn -0.1072 0.4642 0.8792
vn 0.9967 0.0397 -0.0712
vn 0.1939 0.4762 0.8577
vn 0.3461 -0.9380 -0.0186
vn 0.4447 0.3084 0.8409
vn -0.7828 -0.6194 0.0597
vn 0.5493 0.0250 0.8353
vn -0.3461 0.9380 0.0186
vn 0.4677 -0.2659 0.8429
vn 0.7828 0.6194 -0.0597
vn 0.2312 -0.4531 0.8610
vn -0.8299 0.5552 0.0556
vn -0.0700 -0.4651 0.8825
vn 0.8299 -0.5552 -0.0556
vn -0.3208 -0.2973 0.8993
vn -0.2699 -0.9626 0.0254
vn -0.4253 -0.0138 0.9049
vn -0.8602 -0.0369 0.5086
vn -0.6687 -0.5597 0.4895
vn -0.2132 -0.8665 0.4515
vn 0.3359 -0.8432 0.4198
vn 0.7721 -0.4976 0.3953
vn 0.9236 0.0426 0.3811
vn 0.7308 0.5653 0.3826
vn 0.2742 0.8719 0.4056
vn -0.2738 0.8488 0.4524
vn -0.7087 0.5033 0.4944
vn -0.3050 0.1524 -0.9401
vn -0.1669 0.2617 -0.9506
vn 0.0090 0.2687 -0.9632
vn 0.1554 0.1707 -0.9730
vn 0.2164 0.0052 -0.9763
vn 0.1688 -0.1646 -0.9718
vn 0.0307 -0.2739 -0.9613
vn -0.1451 -0.2809 -0.9487
vn -0.2915 -0.1829 -0.9389
vn -0.3526 -0.0175 -0.9356
vn -0.8295 0.5552 0.0612
vn -0.3443 0.9379 0.0425
vn 0.2719 0.9623 0.0041
vn 0.7842 0.6194 -0.0359
vn 0.9971 0.0397 -0.0656
vn 0.8303 -0.5551 -0.0499
vn 0.3477 -0.9376 0.0052
vn -0.2677 -0.9619 0.0548
vn -0.7809 -0.6191 0.0835
vn -0.9963 -0.0397 0.0769
vn 0.6212 0.0221 -0.7833
vn 0.1300 0.6458 -0.7523
vn -0.2348 -0.6552 -0.7180
vn -0.6132 0.3705 -0.6976
vn -0.7259 -0.0315 -0.6870
vn 0.5085 -0.3799 -0.7727
vn 0.4766 0.4139 -0.7756
vn -0.5814 -0.4233 -0.6948
vn -0.2863 0.6292 -0.7226
vn 0.1815 -0.6386 -0.7478
vn -0.0710 -0.0064 -0.9975
vn -0.8619 -0.0328 0.5061
vn -0.6749 -0.5556 0.4856
vn 0.3427 -0.8428 0.4150
vn 0.7753 -0.4948 0.3924
vn 0.9249 0.0384 0.3784
vn 0.7364 0.5611 0.3780
vn -0.2812 0.8483 0.4486
vn -0.7123 0.5005 0.4920
vn -0.8272 0.5591 0.0553
vn -0.3379 0.9406 0.0329
vn 0.7790 0.6254 -0.0446
vn 0.9965 0.0445 -0.0713
vn 0.8272 -0.5591 -0.0553
vn 0.3400 -0.9404 -0.0033
vn -0.7769 -0.6252 0.0742
vn -0.9965 -0.0445 0.0713
vn 0.4766 0.4139 -0.7755
usemtl mushroom
s off
f 9/1/1 57/2/1 7/3/1
f 2/4/2 6/5/2 4/6/2
f 4/6/3 24/7/3 23/8/3
f 3/9/4 64/10/4 21/11/4
f 2/4/2 8/12/2 6/5/2
f 24/7/5 8/12/5 25/13/5
f 13/14/6 59/15/6 11/16/6
f 2/4/2 10/17/2 8/12/2
f 25/13/7 10/17/7 26/18/7
f 17/19/8 61/20/8 15/21/8
f 2/4/2 12/22/2 10/17/2
f 10/17/9 27/23/9 26/18/9
f 19/24/10 64/10/10 63/25/10
f 2/4/2 14/26/2 12/22/2
f 12/22/11 28/27/11 27/23/11
f 7/3/12 55/28/12 5/29/12
f 2/4/2 16/30/2 14/26/2
f 14/26/13 29/31/13 28/27/13
f 11/16/14 58/32/14 9/33/14
f 2/4/2 18/34/2 16/30/2
f 16/30/15 30/35/15 29/31/15
f 5/29/16 56/36/16 3/9/16
f 2/4/2 20/37/2 18/34/2
f 18/34/17 31/38/17 30/35/17
f 15/21/18 60/39/18 13/14/18
f 2/4/2 22/40/2 20/37/2
f 20/37/19 32/41/19 31/38/19
f 19/24/20 62/42/20 17/19/20
f 2/4/2 4/6/2 22/40/2
f 22/40/21 23/8/21 32/41/21
f 52/43/22 23/8/22 43/44/22
f 51/45/23 32/41/23 52/43/23
f 30/35/24 51/45/24 50/46/24
f 29/31/25 50/46/25 49/47/25
f 28/27/26 49/47/26 48/48/26
f 47/49/27 28/27/27 48/48/27
f 46/50/28 27/23/28 47/49/28
f 25/13/29 46/50/29 45/51/29
f 24/7/30 45/51/30 44/52/30
f 23/8/31 44/52/31 43/44/31
f 3/9/32 33/53/32 5/29/32
f 33/53/33 7/3/33 5/29/33
f 34/54/34 9/1/34 7/3/34
f 35/55/35 11/16/35 9/33/35
f 36/56/36 13/14/36 11/16/36
f 37/57/37 15/21/37 13/14/37
f 38/58/38 17/19/38 15/21/38
f 39/59/39 19/24/39 17/19/39
f 40/60/40 21/11/40 19/24/40
f 21/11/41 42/61/41 3/9/41
f 42/62/42 44/52/42 33/63/42
f 33/63/43 45/51/43 34/64/43
f 45/51/44 35/65/44 34/64/44
f 46/50/45 36/66/45 35/65/45
f 47/49/46 37/67/46 36/66/46
f 37/67/47 49/47/47 38/68/47
f 38/68/48 50/46/48 39/69/48
f 50/46/49 40/70/49 39/69/49
f 51/45/50 41/71/50 40/70/50
f 52/43/51 42/62/51 41/71/51
f 59/15/52 70/72/52 69/73/52
f 57/2/53 68/74/53 67/75/53
f 63/25/54 72/76/54 62/42/54
f 55/28/55 66/77/55 56/36/55
f 56/36/56 74/78/56 64/10/56
f 61/20/57 70/72/57 60/39/57
f 58/32/58 69/73/58 68/79/58
f 64/10/59 73/80/59 63/25/59
f 55/28/60 67/75/60 1/81/60
f 62/42/61 71/82/61 61/20/61
f 65/83/62 66/77/62 1/81/62
f 65/83/62 1/81/62 67/75/62
f 65/83/62 67/75/62 68/74/62
f 65/84/62 68/79/62 69/73/62
f 65/84/62 69/73/62 70/72/62
f 65/84/62 70/72/62 71/82/62
f 65/84/62 71/82/62 72/76/62
f 65/84/62 72/76/62 73/80/62
f 65/84/62 73/80/62 74/78/62
f 65/83/62 74/78/62 66/77/62
f 9/1/1 58/85/1 57/2/1
f 4/6/3 6/5/3 24/7/3
f 3/9/4 56/36/4 64/10/4
f 24/7/5 6/5/5 8/12/5
f 13/14/6 60/39/6 59/15/6
f 25/13/7 8/12/7 10/17/7
f 17/19/8 62/42/8 61/20/8
f 10/17/9 12/22/9 27/23/9
f 19/24/10 21/11/10 64/10/10
f 12/22/11 14/26/11 28/27/11
f 7/3/12 57/2/12 55/28/12
f 14/26/13 16/30/13 29/31/13
f 11/16/14 59/15/14 58/32/14
f 16/30/15 18/34/15 30/35/15
f 5/29/16 55/28/16 56/36/16
f 18/34/17 20/37/17 31/38/17
f 15/21/18 61/20/18 60/39/18
f 20/37/19 22/40/19 32/41/19
f 19/24/20 63/25/20 62/42/20
f 22/40/21 4/6/21 23/8/21
f 52/43/63 32/41/63 23/8/63
f 51/45/64 31/38/64 32/41/64
f 30/35/24 31/38/24 51/45/24
f 29/31/65 30/35/65 50/46/65
f 28/27/66 29/31/66 49/47/66
f 47/49/67 27/23/67 28/27/67
f 46/50/68 26/18/68 27/23/68
f 25/13/29 26/18/29 46/50/29
f 24/7/69 25/13/69 45/51/69
f 23/8/70 24/7/70 44/52/70
f 3/9/32 42/61/32 33/53/32
f 33/53/33 34/54/33 7/3/33
f 34/54/34 35/86/34 9/1/34
f 35/55/35 36/56/35 11/16/35
f 36/56/36 37/57/36 13/14/36
f 37/57/37 38/58/37 15/21/37
f 38/58/38 39/59/38 17/19/38
f 39/59/39 40/60/39 19/24/39
f 40/60/40 41/87/40 21/11/40
f 21/11/41 41/87/41 42/61/41
f 42/62/71 43/44/71 44/52/71
f 33/63/72 44/52/72 45/51/72
f 45/51/44 46/50/44 35/65/44
f 46/50/73 47/49/73 36/66/73
f 47/49/74 48/48/74 37/67/74
f 37/67/75 48/48/75 49/47/75
f 38/68/76 49/47/76 50/46/76
f 50/46/49 51/45/49 40/70/49
f 51/45/77 52/43/77 41/71/77
f 52/43/78 43/44/78 42/62/78
f 59/15/52 60/39/52 70/72/52
f 57/2/53 58/85/53 68/74/53
f 63/25/54 73/80/54 72/76/54
f 55/28/55 1/81/55 66/77/55
f 56/36/56 66/77/56 74/78/56
f 61/20/57 71/82/57 70/72/57
f 58/32/79 59/15/79 69/73/79
f 64/10/59 74/78/59 73/80/59
f 55/28/60 57/2/60 67/75/60
f 62/42/61 72/76/61 71/82/61
