# Blender v2.79 (sub 0) OBJ File: 'Low-Poly_Models.blend'
# www.blender.org
mtllib Pine2.mtl
o Cylinder
v -5.188930 0.197635 -2.238451
v -5.188930 0.855346 -2.238451
v -4.925296 0.197635 -2.046910
v -4.925296 0.855346 -2.046910
v -5.025995 0.197635 -1.736990
v -5.025995 0.855346 -1.736990
v -5.351864 0.197635 -1.736990
v -5.351864 0.855346 -1.736990
v -5.452563 0.197635 -2.046910
v -5.452563 0.855346 -2.046910
v -4.174933 0.631497 -2.290719
v -5.188930 0.703009 -3.027431
v -4.562245 0.703009 -1.098694
v -5.815614 0.703009 -1.098695
v -6.202926 0.631497 -2.290719
v -5.071376 3.703743 -2.404748
v -5.188930 3.675332 -2.485292
v -5.116277 3.749711 -2.274425
v -5.261582 3.749711 -2.274425
v -5.306483 3.703743 -2.404748
v -4.576267 1.332856 -2.160316
v -4.703465 1.934033 -2.123005
v -4.830662 2.535114 -2.117869
v -4.957859 3.120629 -2.238177
v -5.046120 3.210989 -1.982006
v -4.967508 2.628245 -1.707126
v -4.888896 1.969455 -1.553407
v -4.810284 1.332855 -1.440089
v -5.801592 1.332856 -2.160316
v -5.674395 1.934033 -2.123005
v -5.547197 2.535114 -2.117869
v -5.420000 3.120629 -2.238177
v -5.188930 3.064784 -2.396499
v -5.188930 2.477555 -2.371722
v -5.188930 1.912141 -2.475036
v -5.188930 1.332855 -2.605442
v -5.331739 3.210989 -1.982006
v -5.410351 2.628245 -1.707126
v -5.488964 1.969455 -1.553407
v -5.567575 1.332855 -1.440089
v -4.856905 3.019903 -2.237046
v -5.522378 3.019903 -2.237047
v -5.010868 3.169712 -1.851391
v -5.189641 3.000661 -2.486605
v -5.395284 3.211193 -1.889745
v -4.695884 2.414212 -2.139768
v -4.884211 2.606106 -1.588956
v -5.681974 2.414212 -2.139768
v -5.188930 2.398727 -2.503568
v -5.493648 2.606106 -1.588956
v -4.509357 1.828140 -2.179805
v -4.768930 1.947475 -1.386797
v -5.868502 1.828140 -2.179805
v -5.188930 1.867244 -2.676929
v -5.608928 1.925183 -1.385411
v -4.309259 1.211166 -2.247074
v -4.645263 1.219985 -1.212959
v -6.068600 1.219267 -2.247074
v -5.188930 1.290779 -2.886192
v -5.732596 1.290779 -1.212959
v -5.188930 0.506816 -2.195530
v -4.966116 0.506816 -2.033647
v -5.051223 0.506816 -1.771714
v -5.326636 0.506816 -1.771714
v -5.411743 0.506816 -2.033647
v -5.156933 4.072991 -2.568467
v -5.188930 4.065259 -2.590390
v -5.169155 4.085503 -2.532995
v -5.208704 4.085503 -2.532995
v -5.220926 4.072991 -2.568467
v -4.651716 2.181893 -2.127563
v -5.726143 2.181893 -2.127563
v -4.856914 2.313478 -1.508278
v -5.188930 2.159754 -2.517159
v -5.520946 2.301788 -1.506924
v -4.866493 3.045478 -2.242764
v -5.512790 3.045478 -2.242764
v -5.015669 3.190715 -1.868439
v -5.189641 3.025995 -2.484851
v -5.389359 3.230460 -1.905189
v -4.824538 3.045291 -2.257537
v -5.553321 3.045291 -2.257537
v -4.992661 3.208995 -1.835496
v -5.188930 3.023107 -2.530445
v -5.414136 3.253668 -1.876803
v -4.707618 2.439447 -2.142662
v -5.670240 2.439447 -2.142662
v -4.891463 2.626789 -1.605030
v -5.188930 2.422575 -2.497364
v -5.486396 2.626789 -1.605030
v -4.649469 2.457411 -2.162114
v -5.728390 2.457411 -2.162114
v -4.855525 2.667391 -1.559547
v -5.188930 2.438040 -2.559554
v -5.522335 2.667391 -1.559547
v -4.778358 1.978080 -1.399790
v -5.188930 1.891953 -2.660028
v -5.599502 1.956794 -1.398413
v -4.524610 1.858248 -2.174350
v -5.853249 1.858248 -2.174351
v -4.493137 1.868868 -2.184271
v -5.884722 1.868868 -2.184271
v -4.758906 1.995291 -1.373202
v -5.188930 1.902868 -2.692874
v -5.618953 1.973142 -1.371753
v -4.324712 1.237276 -2.242200
v -6.053147 1.245071 -2.242201
v -4.654814 1.247063 -1.226292
v -5.188930 1.313072 -2.870066
v -5.723045 1.315178 -1.226292
v -4.302302 1.256215 -2.249517
v -6.075557 1.264175 -2.249518
v -4.640964 1.266506 -1.207275
v -5.188930 1.333436 -2.893659
v -5.736896 1.336067 -1.207275
v -4.573822 0.730464 -1.114629
v -5.188930 0.730464 -3.007735
v -5.804037 0.730464 -1.114629
v -4.193665 0.662147 -2.284632
v -6.184194 0.662147 -2.284633
v -4.168543 0.665702 -2.292794
v -6.209316 0.665702 -2.292794
v -4.558296 0.735275 -1.093258
v -5.188930 0.735275 -3.034148
v -5.819563 0.735275 -1.093258
vn 0.5849 -0.0991 -0.8050
vn 0.9464 -0.0991 0.3075
vn 0.0000 -0.0991 0.9951
vn -0.9464 -0.0991 0.3075
vn -0.5849 -0.0991 -0.8050
vn 0.0000 -1.0000 -0.0000
vn -0.5841 0.1116 -0.8040
vn -0.9451 0.1116 0.3071
vn 0.0000 0.1116 0.9938
vn 0.9451 0.1116 0.3071
vn 0.5841 0.1116 -0.8040
vn -0.2208 -0.9727 -0.0717
vn 0.9010 0.3783 0.2122
vn 0.1364 -0.9727 0.1878
vn -0.2174 -0.9539 0.2067
vn 0.0000 -0.9727 -0.2321
vn 0.2974 -0.9539 -0.0394
vn 0.0000 0.6101 0.7923
vn -0.5548 0.0575 -0.8300
vn 0.0000 0.6255 0.7803
vn 0.5971 0.0448 -0.8009
vn -0.9183 0.3736 0.1312
vn -0.8477 0.4688 0.2483
vn -0.8515 0.4637 0.2447
vn -0.8754 0.4379 0.2048
vn -0.8891 0.4311 0.1538
vn 0.5399 0.4688 -0.6991
vn 0.5137 0.4413 -0.7358
vn 0.5227 0.2869 -0.8028
vn 0.5795 0.1783 -0.7952
vn 0.0000 0.5020 0.8649
vn 0.0000 0.4795 0.8775
vn -0.0075 0.5246 0.8513
vn -0.0000 0.6136 0.7896
vn -0.5084 0.5020 -0.6997
vn -0.5357 0.4949 -0.6842
vn -0.5404 0.3501 -0.7651
vn -0.5159 0.2157 -0.8290
vn 0.8226 0.5020 0.2673
vn 0.8656 0.4309 0.2550
vn 0.8802 0.4326 0.1952
vn 0.8889 0.4314 0.1541
vn 0.7014 -0.7127 0.0098
vn -0.4375 -0.4296 0.7900
vn -0.1004 -0.9927 -0.0670
vn 0.3602 -0.7614 0.5390
vn -0.7249 -0.6885 -0.0219
vn -0.4503 -0.8798 0.1526
vn 0.3318 -0.8097 0.4841
vn 0.0000 -0.9829 -0.1842
vn -0.4064 -0.5808 0.7053
vn 0.6717 -0.7386 -0.0563
vn -0.2599 -0.9638 0.0600
vn 0.2102 -0.9544 0.2122
vn 0.0000 -0.9670 -0.2548
vn -0.3091 -0.8226 0.4774
vn 0.5005 -0.8588 -0.1095
vn -0.4295 -0.8934 -0.1319
vn 0.1848 -0.9719 0.1457
vn -0.0633 -0.9721 -0.2261
vn -0.2776 -0.8815 0.3821
vn 0.4254 -0.8944 -0.1382
vn 0.0000 0.9431 -0.3326
vn 0.5867 -0.2107 -0.7819
vn -0.9276 0.3084 0.2108
vn 0.9276 0.3084 0.2108
vn -0.5867 -0.2107 -0.7819
vn 0.9021 0.3713 0.2200
vn -0.5336 0.4775 -0.6981
vn -0.0083 0.3825 0.9239
vn 0.5265 0.4024 -0.7489
vn -0.8833 0.4045 0.2370
vn -0.9184 0.3735 0.1304
vn 0.5977 0.0451 -0.8004
vn -0.0099 0.6273 0.7787
vn -0.5965 0.0554 -0.8007
vn 0.9010 0.3783 0.2123
vn -0.1871 -0.8311 0.5238
vn 0.0162 -0.9981 0.0587
vn -0.1411 -0.8232 0.5499
vn -0.0136 -0.9979 0.0630
vn 0.1375 -0.9037 0.4054
vn 0.8891 0.4312 0.1538
vn -0.5759 0.2058 -0.7912
vn 0.5805 0.1788 -0.7944
vn 0.3933 -0.8181 0.4196
vn -0.2080 -0.9492 -0.2361
vn 0.0000 -0.7460 0.6659
vn 0.2116 -0.9469 -0.2420
vn -0.3931 -0.8182 0.4195
vn -0.8829 0.4040 0.2392
vn 0.5534 0.4115 -0.7241
vn -0.0086 0.3826 0.9239
vn -0.5343 0.4772 -0.6977
vn 0.8962 0.3760 0.2354
vn -0.3769 -0.8955 0.2370
vn 0.2024 -0.9181 -0.3406
vn 0.0228 -0.8448 0.5346
vn -0.1811 -0.9333 -0.3101
vn 0.4053 -0.8737 0.2690
vn 0.8566 0.4371 0.2741
vn -0.5359 0.4948 -0.6841
vn 0.0300 0.4703 0.8820
vn 0.5498 0.4560 -0.6999
vn -0.8515 0.4637 0.2446
vn 0.6751 -0.7022 0.2263
vn -0.3838 -0.6990 -0.6034
vn -0.0437 -0.6882 0.7242
vn 0.3842 -0.6911 -0.6122
vn -0.6742 -0.6888 0.2666
vn 0.8354 0.4931 0.2427
vn -0.5332 0.4931 -0.6874
vn 0.5405 0.4690 -0.6984
vn -0.8478 0.4690 0.2473
vn 0.1561 -0.9819 0.1077
vn -0.0630 -0.9819 -0.1788
vn 0.0000 -0.9756 0.2196
vn 0.0749 -0.9779 -0.1954
vn -0.1754 -0.9779 0.1141
vn -0.2974 -0.9539 -0.0394
vn 0.9075 0.3801 0.1786
vn 0.2174 -0.9539 0.2067
vn -0.1364 -0.9727 0.1878
vn 0.2208 -0.9727 -0.0717
vn -0.5971 0.0448 -0.8009
vn -0.0095 0.6289 0.7774
vn 0.5548 0.0575 -0.8300
vn -0.8977 0.4085 0.1652
vn -0.8226 0.5020 0.2673
vn -0.8488 0.4674 0.2473
vn -0.8846 0.4218 0.1991
vn -0.8889 0.4314 0.1541
vn 0.5084 0.5020 -0.6997
vn 0.5389 0.4937 -0.6825
vn 0.5404 0.3501 -0.7651
vn 0.5159 0.2157 -0.8290
vn 0.0285 0.4497 0.8927
vn -0.0000 0.5341 0.8454
vn -0.5399 0.4688 -0.6991
vn -0.5123 0.4455 -0.7342
vn -0.5227 0.2869 -0.8028
vn -0.5795 0.1783 -0.7952
vn 0.8477 0.4688 0.2483
vn 0.8496 0.4521 0.2716
vn 0.8767 0.4387 0.1973
vn 0.8891 0.4311 0.1538
vn 0.4395 -0.8450 0.3046
vn -0.3628 -0.7579 0.5422
vn 0.0000 -0.9535 -0.3013
vn 0.4356 -0.4338 0.7887
vn -0.7063 -0.7079 0.0063
vn -0.6717 -0.7386 -0.0563
vn 0.4064 -0.5808 0.7053
vn -0.3318 -0.8097 0.4841
vn 0.4503 -0.8798 0.1526
vn -0.5005 -0.8588 -0.1095
vn 0.3091 -0.8226 0.4774
vn 0.0260 -0.9885 -0.1491
vn -0.2102 -0.9544 0.2122
vn 0.3475 -0.9377 0.0010
vn -0.4491 -0.8815 -0.1459
vn 0.2629 -0.8944 0.3619
vn 0.0000 -0.8955 -0.4450
vn -0.1935 -0.9703 0.1454
vn 0.2352 -0.9719 -0.0092
vn -0.5867 -0.2108 -0.7819
vn 0.8848 0.4072 0.2265
vn -0.5265 0.4024 -0.7489
vn -0.0050 0.3895 0.9210
vn 0.5336 0.4775 -0.6981
vn -0.9032 0.3633 0.2284
vn -0.9156 0.3821 0.1254
vn 0.5965 0.0554 -0.8007
vn -0.0097 0.6289 0.7774
vn -0.5977 0.0451 -0.8004
vn 0.8992 0.3840 0.2098
vn -0.1818 -0.8331 0.5224
vn 0.0133 -0.9979 0.0634
vn -0.1417 -0.8203 0.5541
vn -0.0166 -0.9982 0.0582
vn 0.1388 -0.9034 0.4057
vn -0.5805 0.1788 -0.7944
vn 0.5759 0.2058 -0.7912
vn -0.8891 0.4312 0.1538
vn 0.3931 -0.8182 0.4195
vn -0.2116 -0.9469 -0.2420
vn 0.2080 -0.9492 -0.2361
vn -0.3933 -0.8181 0.4196
vn -0.8964 0.3686 0.2463
vn 0.5343 0.4772 -0.6977
vn -0.0085 0.3885 0.9214
vn -0.5534 0.4115 -0.7241
vn 0.8845 0.4068 0.2283
vn -0.4043 -0.8811 0.2453
vn 0.1811 -0.9333 -0.3101
vn 0.0227 -0.8468 0.5315
vn -0.2024 -0.9181 -0.3406
vn 0.3817 -0.8863 0.2622
vn 0.8495 0.4519 0.2722
vn -0.5462 0.4594 -0.7004
vn 0.0293 0.4499 0.8926
vn 0.5391 0.4936 -0.6824
vn -0.8503 0.4663 0.2441
vn 0.6707 -0.7068 0.2248
vn -0.3890 -0.6901 -0.6103
vn -0.0435 -0.6826 0.7295
vn 0.3784 -0.7007 -0.6048
vn -0.6737 -0.6892 0.2665
vn 0.8478 0.4690 0.2473
vn -0.5405 0.4690 -0.6985
vn 0.5333 0.4931 -0.6874
vn -0.8354 0.4931 0.2427
vn 0.1754 -0.9779 0.1141
vn -0.0749 -0.9779 -0.1954
vn 0.0630 -0.9819 -0.1788
vn -0.1561 -0.9819 0.1077
usemtl Material.005
s off
f 2//1 62//1 61//1
f 4//2 63//2 62//2
f 6//3 64//3 63//3
f 64//4 10//4 65//4
f 10//5 61//5 65//5
f 5//6 7//6 9//6
f 65//7 1//7 9//7
f 64//8 9//8 7//8
f 63//9 7//9 5//9
f 62//10 5//10 3//10
f 61//11 3//11 1//11
f 2//1 4//1 62//1
f 4//2 6//2 63//2
f 6//3 8//3 64//3
f 64//4 8//4 10//4
f 10//5 2//5 61//5
f 9//6 1//6 3//6
f 3//6 5//6 9//6
f 65//7 61//7 1//7
f 64//8 65//8 9//8
f 63//9 64//9 7//9
f 62//10 63//10 5//10
f 61//11 62//11 3//11
usemtl Material.006
f 4//12 13//12 6//12
f 81//13 18//13 83//13
f 10//14 12//14 2//14
f 4//15 12//15 11//15
f 6//16 14//16 8//16
f 10//17 14//17 15//17
f 19//18 68//18 69//18
f 84//19 20//19 17//19
f 85//20 18//20 19//20
f 84//21 16//21 81//21
f 85//22 20//22 82//22
f 125//23 29//23 122//23
f 115//24 30//24 112//24
f 75//25 31//25 72//25
f 95//26 32//26 92//26
f 124//27 21//27 121//27
f 111//28 35//28 22//28
f 71//29 34//29 23//29
f 94//30 24//30 91//30
f 125//31 28//31 40//31
f 115//32 27//32 39//32
f 73//33 38//33 75//33
f 93//34 37//34 95//34
f 124//35 29//35 36//35
f 112//36 35//36 114//36
f 72//37 34//37 74//37
f 94//38 32//38 33//38
f 123//39 21//39 28//39
f 113//40 22//40 27//40
f 73//41 23//41 26//41
f 93//42 24//42 25//42
f 37//43 42//43 32//43
f 33//44 41//44 24//44
f 37//45 43//45 45//45
f 33//46 42//46 44//46
f 25//47 41//47 43//47
f 26//48 46//48 47//48
f 34//49 48//49 49//49
f 26//50 50//50 38//50
f 34//51 46//51 23//51
f 38//52 48//52 31//52
f 27//53 51//53 52//53
f 35//54 53//54 54//54
f 27//55 55//55 39//55
f 35//56 51//56 22//56
f 39//57 53//57 30//57
f 28//58 56//58 57//58
f 36//59 58//59 59//59
f 40//60 57//60 60//60
f 36//61 56//61 21//61
f 40//62 58//62 29//62
f 67//63 69//63 68//63
f 17//64 66//64 16//64
f 20//65 69//65 70//65
f 16//66 68//66 18//66
f 17//67 70//67 67//67
f 103//68 71//68 73//68
f 102//69 74//69 104//69
f 103//70 75//70 105//70
f 101//71 74//71 71//71
f 105//72 72//72 102//72
f 45//73 77//73 42//73
f 44//74 76//74 41//74
f 45//75 78//75 80//75
f 44//76 77//76 79//76
f 43//77 76//77 78//77
f 80//78 82//78 77//78
f 79//79 81//79 76//79
f 80//80 83//80 85//80
f 79//81 82//81 84//81
f 76//82 83//82 78//82
f 47//83 86//83 88//83
f 49//84 87//84 89//84
f 47//34 90//34 50//34
f 49//85 86//85 46//85
f 50//26 87//26 48//26
f 88//86 91//86 93//86
f 89//87 92//87 94//87
f 88//88 95//88 90//88
f 89//89 91//89 86//89
f 90//90 92//90 87//90
f 55//91 100//91 53//91
f 54//92 99//92 51//92
f 52//93 98//93 55//93
f 54//94 100//94 97//94
f 52//95 99//95 96//95
f 98//96 102//96 100//96
f 97//97 101//97 99//97
f 96//98 105//98 98//98
f 97//99 102//99 104//99
f 96//100 101//100 103//100
f 57//101 106//101 108//101
f 59//102 107//102 109//102
f 60//103 108//103 110//103
f 59//104 106//104 56//104
f 60//105 107//105 58//105
f 108//106 111//106 113//106
f 109//107 112//107 114//107
f 110//108 113//108 115//108
f 109//109 111//109 106//109
f 110//110 112//110 107//110
f 13//111 119//111 116//111
f 12//112 120//112 117//112
f 13//31 118//31 14//31
f 12//113 119//113 11//113
f 14//114 120//114 15//114
f 116//115 121//115 123//115
f 117//116 122//116 124//116
f 116//117 125//117 118//117
f 117//118 121//118 119//118
f 118//119 122//119 120//119
f 4//120 11//120 13//120
f 81//121 16//121 18//121
f 10//122 15//122 12//122
f 4//123 2//123 12//123
f 6//16 13//16 14//16
f 10//124 8//124 14//124
f 19//18 18//18 68//18
f 84//125 82//125 20//125
f 85//126 83//126 18//126
f 84//127 17//127 16//127
f 85//128 19//128 20//128
f 125//129 40//129 29//129
f 115//130 39//130 30//130
f 75//131 38//131 31//131
f 95//132 37//132 32//132
f 124//133 36//133 21//133
f 111//134 114//134 35//134
f 71//135 74//135 34//135
f 94//136 33//136 24//136
f 125//31 123//31 28//31
f 115//137 113//137 27//137
f 73//138 26//138 38//138
f 93//34 25//34 37//34
f 124//139 122//139 29//139
f 112//140 30//140 35//140
f 72//141 31//141 34//141
f 94//142 92//142 32//142
f 123//143 121//143 21//143
f 113//144 111//144 22//144
f 73//145 71//145 23//145
f 93//146 91//146 24//146
f 37//147 45//147 42//147
f 33//148 44//148 41//148
f 37//149 25//149 43//149
f 33//150 32//150 42//150
f 25//151 24//151 41//151
f 26//152 23//152 46//152
f 34//153 31//153 48//153
f 26//50 47//50 50//50
f 34//154 49//154 46//154
f 38//155 50//155 48//155
f 27//156 22//156 51//156
f 35//157 30//157 53//157
f 27//158 52//158 55//158
f 35//159 54//159 51//159
f 39//160 55//160 53//160
f 28//161 21//161 56//161
f 36//162 29//162 58//162
f 40//163 28//163 57//163
f 36//164 59//164 56//164
f 40//165 60//165 58//165
f 68//63 66//63 67//63
f 67//63 70//63 69//63
f 17//64 67//64 66//64
f 20//65 19//65 69//65
f 16//66 66//66 68//66
f 17//166 20//166 70//166
f 103//167 101//167 71//167
f 102//168 72//168 74//168
f 103//169 73//169 75//169
f 101//170 104//170 74//170
f 105//171 75//171 72//171
f 45//172 80//172 77//172
f 44//173 79//173 76//173
f 45//174 43//174 78//174
f 44//175 42//175 77//175
f 43//176 41//176 76//176
f 80//177 85//177 82//177
f 79//178 84//178 81//178
f 80//179 78//179 83//179
f 79//180 77//180 82//180
f 76//181 81//181 83//181
f 47//146 46//146 86//146
f 49//182 48//182 87//182
f 47//34 88//34 90//34
f 49//183 89//183 86//183
f 50//184 90//184 87//184
f 88//185 86//185 91//185
f 89//186 87//186 92//186
f 88//88 93//88 95//88
f 89//187 94//187 91//187
f 90//188 95//188 92//188
f 55//189 98//189 100//189
f 54//190 97//190 99//190
f 52//191 96//191 98//191
f 54//192 53//192 100//192
f 52//193 51//193 99//193
f 98//194 105//194 102//194
f 97//195 104//195 101//195
f 96//196 103//196 105//196
f 97//197 100//197 102//197
f 96//198 99//198 101//198
f 57//199 56//199 106//199
f 59//200 58//200 107//200
f 60//201 57//201 108//201
f 59//202 109//202 106//202
f 60//203 110//203 107//203
f 108//204 106//204 111//204
f 109//205 107//205 112//205
f 110//206 108//206 113//206
f 109//207 114//207 111//207
f 110//208 115//208 112//208
f 13//209 11//209 119//209
f 12//210 15//210 120//210
f 13//31 116//31 118//31
f 12//211 117//211 119//211
f 14//212 118//212 120//212
f 116//213 119//213 121//213
f 117//214 120//214 122//214
f 116//117 123//117 125//117
f 117//215 124//215 121//215
f 118//216 125//216 122//216
