# Blender v2.79 (sub 0) OBJ File: 'Rock3.blend'
# www.blender.org
mtllib Rock3.mtl
o Sphere.001
v 0.261019 -0.891250 -0.493452
v -0.482882 -0.624858 -0.699911
v -0.101310 -0.069998 -1.313893
v -0.325814 -1.123439 0.031143
v -0.997090 -0.176837 -0.571413
v 0.165553 0.660731 -1.585767
v -0.850246 -0.797693 0.059631
v -1.163266 -0.255017 0.098531
v -0.557712 -1.021284 0.874103
v -1.046872 -0.081462 0.689491
v -0.839314 0.592565 -0.611093
v -0.995080 0.537125 -0.006673
v -0.365051 -0.380109 1.363467
v -0.661723 0.545712 0.665476
v -0.223310 1.175141 -0.336587
v 0.286698 0.649148 0.908996
v 0.775649 0.211331 1.292566
v 0.510610 0.289774 1.279341
v 0.338628 1.152179 -0.176873
v 0.912323 0.812598 0.066050
v 0.554814 -1.069728 0.766783
v 1.165091 -0.099105 0.770525
v 0.836445 0.537892 -0.963497
v 1.185898 -0.153403 -0.472649
v 1.025723 -0.602579 -0.247316
v 0.591226 0.182570 -1.386975
vt 0.154309 0.268413
vt 0.299400 0.220053
vt 0.348703 0.390474
vt 0.172348 0.112326
vt 0.405359 0.182564
vt 0.405359 0.525651
vt 0.802976 0.863102
vt 0.795663 0.696391
vt 0.883196 0.777395
vt 0.859389 0.534942
vt 0.977231 0.705107
vt 0.193406 0.781540
vt 0.273180 0.865659
vt 0.118748 0.872726
vt 0.191727 0.967017
vt 0.969259 0.863102
vt 1.000000 0.520673
vt 0.080800 1.000000
vt 0.000000 0.894734
vt 0.273180 0.525651
vt 0.059996 0.677492
vt 0.731074 0.544675
vt 0.703285 0.789631
vt 0.535716 0.732547
vt 0.824652 0.011818
vt 0.711655 0.233776
vt 0.705471 0.186873
vt 0.006900 0.613849
vt 0.405359 0.785502
vt 0.626143 0.520673
vt 0.419984 0.344053
vt 0.461635 0.226769
vt 0.643970 0.520673
vt 0.971413 0.211015
vt 0.405359 0.000000
vt 0.522703 0.014422
vt 0.614875 0.359509
vt 0.800878 0.335364
vt 0.671565 0.191391
vt 0.705471 0.129166
vt 0.976553 0.000000
vt 0.283724 0.512961
vt 0.058661 0.368913
vt 0.000000 0.151671
vt 0.150433 0.000000
vt 0.731074 0.619011
vt 0.454486 0.800083
vt 0.557303 0.950213
vt 0.731074 0.883373
vt 0.496381 0.536302
vt 0.275141 0.072587
vt 0.976553 0.369402
vt 0.705471 0.409449
vt 0.098452 0.457862
vn -0.0658 -0.7196 -0.6912
vn -0.1493 -0.8315 -0.5350
vn -0.5482 -0.4220 -0.7221
vn -0.6332 -0.0560 -0.7720
vn -0.8436 -0.4677 -0.2638
vn -0.8714 -0.3969 0.2882
vn -0.9557 0.1842 -0.2294
vn -0.9602 0.1749 -0.2178
vn -0.9670 0.2219 0.1253
vn -0.7340 -0.2587 0.6279
vn -0.7812 0.4944 0.3811
vn -0.4945 0.7387 -0.4581
vn -0.2106 0.8667 0.4522
vn -0.0091 0.1363 0.9906
vn 0.1350 0.9303 -0.3411
vn 0.4186 0.8163 0.3982
vn 0.5805 0.7440 -0.3308
vn 0.2643 -0.4048 0.8754
vn 0.8163 0.4775 0.3250
vn 0.4047 0.8757 -0.2635
vn 0.6131 -0.3881 0.6881
vn 0.9461 -0.3224 0.0299
vn 0.0491 -0.6153 0.7868
vn 0.4439 -0.6499 -0.6170
vn 0.0325 -0.3589 -0.9328
vn 0.1634 -0.6602 -0.7331
vn -0.0325 -0.9932 0.1114
vn -0.5288 -0.8476 -0.0428
vn -0.8488 -0.5016 0.1672
vn -0.6960 0.1061 -0.7101
vn -0.2588 0.6103 0.7487
vn -0.5638 0.3744 0.7362
vn -0.6593 0.7450 -0.1016
vn -0.5464 0.7959 0.2608
vn 0.9222 0.3513 -0.1617
vn -0.3105 0.5068 0.8042
vn -0.0812 0.9058 0.4158
vn 0.1940 0.7600 0.6202
vn 0.3083 0.8401 0.4462
vn 0.9628 0.2703 0.0043
vn -0.4965 -0.7631 -0.4138
vn 0.8372 -0.5270 0.1460
vn 0.8455 0.0500 -0.5316
vn 0.6180 -0.5174 -0.5920
vn 0.4057 -0.8871 -0.2202
vn 0.2136 -0.9591 -0.1856
vn 0.6745 0.3248 -0.6630
vn -0.6474 -0.6132 -0.4526
usemtl Rock3
s off
f 1/1/1 2/2/1 3/3/1
f 1/1/2 4/4/2 2/2/2
f 2/2/3 5/5/3 3/3/3
f 3/3/4 5/5/4 6/6/4
f 5/7/5 7/8/5 8/9/5
f 8/9/6 9/10/6 10/11/6
f 11/12/7 5/13/7 12/14/7
f 5/13/8 8/15/8 12/14/8
f 12/16/9 8/9/9 10/11/9
f 9/10/10 13/17/10 10/11/10
f 12/14/11 10/18/11 14/19/11
f 6/20/12 11/12/12 15/21/12
f 15/22/13 14/23/13 16/24/13
f 13/25/14 17/26/14 18/27/14
f 15/21/15 19/28/15 6/20/15
f 16/24/16 17/29/16 19/30/16
f 19/31/17 20/32/17 6/33/17
f 17/26/18 13/25/18 21/34/18
f 20/32/19 17/35/19 22/36/19
f 6/33/20 20/32/20 23/37/20
f 17/26/21 21/34/21 22/38/21
f 24/39/22 22/36/22 25/40/22
f 13/25/23 9/41/23 21/34/23
f 26/42/24 25/43/24 1/1/24
f 26/42/25 3/3/25 6/6/25
f 26/42/26 1/1/26 3/3/26
f 21/44/27 9/45/27 4/4/27
f 4/46/28 9/10/28 7/8/28
f 7/8/29 9/10/29 8/9/29
f 5/13/30 11/12/30 6/20/30
f 18/47/31 16/24/31 14/23/31
f 13/48/32 14/23/32 10/49/32
f 11/12/33 12/14/33 15/21/33
f 12/14/34 14/19/34 15/21/34
f 24/39/35 23/37/35 20/32/35
f 13/48/36 18/47/36 14/23/36
f 15/22/37 16/24/37 19/30/37
f 16/24/38 18/47/38 17/29/38
f 19/30/39 17/29/39 20/50/39
f 20/32/40 22/36/40 24/39/40
f 2/2/41 4/4/41 7/51/41
f 22/38/42 21/34/42 25/52/42
f 23/37/43 24/39/43 26/53/43
f 24/54/44 25/43/44 26/42/44
f 21/44/45 1/1/45 25/43/45
f 21/44/46 4/4/46 1/1/46
f 26/53/47 6/33/47 23/37/47
f 2/2/48 7/51/48 5/5/48
