# Blender v2.79 (sub 0) OBJ File: 'Rock2.blend'
# www.blender.org
mtllib Rock2.mtl
o Sphere
v -0.336883 0.223583 -1.798907
v 0.033957 0.807769 -1.542156
v 0.882073 0.232791 -1.643930
v 0.775949 -0.314289 -1.694332
v 0.443185 1.036002 -1.106493
v 1.526995 0.225330 -1.176474
v 0.174101 1.369562 -0.487793
v 1.759272 0.430701 -0.545748
v 1.911727 -0.302010 -0.501016
v 1.491420 -0.392960 -1.158072
v 1.762485 -0.628552 0.253723
v 1.284478 -0.874958 -0.772296
v 1.570166 0.673846 -0.064927
v 1.731655 0.279107 0.787680
v 1.996713 0.023766 -0.106594
v 1.771928 -0.276203 0.766631
v 0.942684 -1.105548 -0.227224
v 0.508524 -1.147549 0.552494
v 0.944057 -0.816652 1.091146
v 1.341413 0.733151 0.552074
v 0.032088 1.187169 0.378135
v 1.135338 -0.094842 1.478528
v 1.129011 -0.431580 1.361276
v 0.312873 1.033199 1.057441
v 0.664459 0.774227 1.288374
v 0.231145 0.447118 1.663507
v -0.394431 -0.325377 1.856063
v -0.256224 0.868758 1.349793
v -0.332415 -0.666613 1.664698
v -0.629452 -1.053845 0.720370
v -0.532805 0.464431 1.644234
v -0.944739 -0.834727 1.562878
v -0.477946 1.354216 -0.168413
v -1.369199 -0.561106 1.538735
v -1.249634 0.533908 1.154999
v -0.581250 -1.145503 -0.492131
v 0.142208 -1.215326 0.175491
v -1.549735 0.115256 1.293369
v -1.807890 -0.409672 0.902745
v -1.760756 -0.674404 0.350774
v -1.306294 0.965884 -0.151220
v -1.291690 -0.878230 1.139580
v -1.864007 0.265234 -0.327563
v -1.883856 0.048843 -0.683100
v -1.535411 -0.279402 -1.111080
v -1.549444 0.111702 -1.206633
v -1.657538 0.541009 -0.839803
v -0.791556 1.240799 -0.823277
v -0.778629 0.931546 -1.320748
v -1.191550 -0.877940 -0.648222
v -0.547503 -0.812914 -1.309908
v 0.274133 -1.165093 -0.677252
v -0.253531 1.405454 -0.725866
v -0.343310 -0.334227 -1.737173
v 0.443592 -0.704830 -1.536403
vt 0.787762 0.402556
vt 0.893298 0.424861
vt 0.854290 0.522032
vt 0.773147 0.534988
vt 0.957726 0.478741
vt 0.899362 0.610302
vt 0.430593 0.239306
vt 0.332947 0.266529
vt 0.396224 0.055112
vt 0.957726 0.661667
vt 0.867068 0.712746
vt 0.814112 0.637348
vt 0.161676 0.857397
vt 0.181848 0.788465
vt 0.278074 0.824728
vt 0.321024 0.073397
vt 0.203770 0.016066
vt 0.340940 0.000000
vt 0.097951 0.832572
vt 0.039186 0.737814
vt 0.113130 0.747414
vt 0.765409 0.056192
vt 0.874643 0.006348
vt 0.845178 0.138959
vt 0.210016 0.650459
vt 0.224486 0.084411
vt 0.203330 0.251029
vt 0.088394 0.632918
vt 0.138844 0.643893
vt 0.115719 0.195762
vt 0.094700 0.140186
vt 0.000000 0.597350
vt 0.048364 0.531253
vt 0.172817 0.464821
vt 0.053009 0.242732
vt 0.940693 0.295875
vt 0.799206 0.270333
vt 0.024657 0.163152
vt 0.000000 0.247465
vt 0.892076 0.350993
vt 0.263699 0.328251
vt 0.605075 0.402556
vt 0.708269 0.453051
vt 0.538497 0.461401
vt 0.278074 0.440428
vt 0.223810 0.487795
vt 0.044514 0.341420
vt 0.639310 0.203568
vt 0.773130 0.157470
vt 0.623484 0.513738
vt 0.530775 0.550678
vt 0.278074 0.461904
vt 0.317112 0.401038
vt 0.317112 0.550555
vt 0.230636 0.401038
vt 0.814705 0.365888
vt 0.678420 0.382950
vt 0.589540 0.709971
vt 0.547684 0.744431
vt 0.524786 0.366202
vt 0.490854 0.299117
vt 0.708269 0.820646
vt 0.769917 0.875691
vt 0.723858 0.895210
vt 0.789255 0.808528
vt 0.940022 0.790336
vt 0.931887 0.857163
vt 0.579402 0.268217
vt 0.527841 0.169623
vt 0.665436 0.103393
vt 0.916708 0.966479
vt 0.417170 0.373313
vt 0.351781 0.320907
vt 0.477848 0.285511
vt 1.000000 0.916285
vt 0.713480 0.432140
vt 0.708269 0.533380
vt 0.555265 0.056689
vt 0.710037 0.000000
vt 0.749870 0.665837
vt 0.477848 0.088260
vt 0.927390 0.730140
vt 0.940693 0.128472
vt 0.082513 0.046323
vt 0.686444 0.532006
vt 0.708269 0.692957
vt 0.081077 0.462171
vt 0.261186 0.401038
vt 0.860982 0.402556
vt 0.317112 0.447363
vt 0.355760 0.401038
vt 0.355760 0.551725
vt 0.346056 0.374863
vt 0.477848 0.603814
vt 0.618817 0.769109
vt 0.716111 0.774305
vt 0.852374 1.000000
vt 0.832298 0.730140
vt 0.761502 0.987767
vt 1.000000 0.790255
vt 0.477848 0.140798
vn 0.1162 0.3369 -0.9344
vn 0.1253 0.0669 -0.9899
vn 0.3573 0.6464 -0.6742
vn 0.4493 0.6533 -0.6094
vn 0.4882 0.8391 -0.2400
vn 0.4896 0.8394 -0.2360
vn 0.4884 0.8378 -0.2440
vn 0.9069 0.1650 -0.3877
vn 0.8447 -0.0644 -0.5314
vn 0.7027 -0.6931 -0.1609
vn 0.8544 0.5140 0.0761
vn 0.8201 0.5664 0.0814
vn 0.9488 -0.3115 0.0528
vn 0.9616 0.0596 0.2680
vn 0.4127 -0.8925 0.1817
vn 0.6053 -0.6612 0.4431
vn 0.2889 0.9261 0.2425
vn 0.7488 0.0292 0.6622
vn 0.6893 -0.2497 0.6800
vn 0.3166 0.9449 0.0833
vn 0.4100 0.8505 0.3295
vn 0.4079 0.4005 0.8205
vn 0.2315 0.0547 0.9713
vn 0.1203 0.7467 0.6542
vn -0.0193 -0.9229 0.3845
vn -0.0069 0.5918 0.8061
vn -0.1356 0.9527 0.2720
vn 0.2018 -0.9268 0.3166
vn 0.0842 0.9722 0.2186
vn -0.3446 0.1864 0.9201
vn -0.0102 -0.4905 0.8714
vn -0.3476 0.9166 0.1972
vn -0.1580 -0.9851 0.0682
vn -0.8247 -0.0151 0.5653
vn -0.6518 -0.7040 0.2820
vn -0.3993 0.8652 0.3034
vn -0.3792 -0.9252 -0.0136
vn -0.9987 0.0088 0.0504
vn -0.8134 -0.5176 -0.2653
vn -0.8225 -0.1627 -0.5449
vn -0.8336 0.2223 -0.5058
vn -0.5564 0.6991 -0.4491
vn -0.4819 -0.6923 -0.5371
vn -0.0368 -0.9972 -0.0644
vn -0.4411 0.2968 -0.8470
vn -0.0417 0.7991 -0.5998
vn -0.1615 0.4812 -0.8616
vn -0.1030 -0.9199 -0.3784
vn 0.0400 -0.1104 -0.9931
vn 0.0422 -0.4052 -0.9133
vn -0.0123 -0.8804 -0.4741
vn 0.2755 0.8911 -0.3606
vn 0.2119 -0.8782 -0.4287
vn 0.2467 -0.9383 -0.2423
vn 0.5855 -0.0578 -0.8086
vn 0.4203 -0.6701 -0.6118
vn 0.1510 -0.9880 0.0309
vn 0.5222 0.7354 -0.4318
vn 0.7087 -0.6006 -0.3702
vn 0.4876 0.8404 -0.2364
vn 0.4890 0.8418 -0.2285
vn 0.4893 0.8405 -0.2326
vn 0.9243 0.1715 -0.3408
vn 0.2769 -0.4312 0.8587
vn 0.5184 -0.8544 -0.0363
vn 0.4274 0.9012 0.0718
vn 0.9539 -0.2553 0.1578
vn 0.6935 0.6948 0.1903
vn 0.4159 -0.8854 0.2076
vn 0.6032 -0.6315 0.4872
vn 0.5420 0.7040 0.4590
vn 0.5417 0.4490 0.7106
vn -0.7892 0.5720 0.2234
vn 0.2536 -0.6342 0.7304
vn 0.1026 -0.8824 0.4591
vn 0.1180 0.6769 0.7265
vn -0.0186 0.2560 0.9665
vn -0.3569 0.6970 0.6219
vn -0.0476 -0.9740 0.2213
vn -0.2347 -0.2819 0.9303
vn -0.4347 0.5479 0.7148
vn -0.3853 0.2221 0.8957
vn -0.1823 0.8798 0.4390
vn -0.4945 -0.7248 0.4798
vn -0.1279 -0.9705 0.2045
vn -0.9301 0.3024 0.2083
vn -0.7620 -0.5709 0.3056
vn -0.2879 0.9573 -0.0279
vn -0.2171 -0.9740 0.0650
vn -0.9853 -0.1708 -0.0022
vn -0.3933 -0.9187 -0.0369
vn -0.7844 0.6200 0.0176
vn -0.9147 0.3659 -0.1717
vn -0.7213 -0.6326 -0.2821
vn -0.4299 -0.0944 -0.8979
vn -0.6187 0.7694 -0.1591
vn -0.5738 0.4437 -0.6884
vn 0.0266 0.9944 0.1021
vn -0.2918 -0.8818 -0.3706
vn -0.4212 -0.4973 -0.7585
vn -0.1611 0.8363 -0.5241
vn -0.1051 -0.6369 -0.7638
vn 0.1325 0.8214 -0.5548
vn 0.5963 -0.0418 -0.8017
vn 0.4229 -0.6252 -0.6560
vn 0.1157 -0.9925 -0.0406
vn 0.2419 -0.3231 0.9149
vn -0.7623 0.6141 0.2046
vn -0.4232 0.9048 0.0460
vn -0.4611 -0.2262 -0.8581
usemtl Rock1
s off
f 1/1/1 2/2/1 3/3/1
f 1/1/2 3/3/2 4/4/2
f 2/2/3 5/5/3 3/3/3
f 3/3/4 5/5/4 6/6/4
f 5/7/5 7/8/6 8/9/7
f 6/6/8 8/10/8 9/11/8
f 6/6/9 9/11/9 10/12/9
f 9/13/10 11/14/10 12/15/10
f 13/16/11 14/17/11 8/9/11
f 8/9/12 14/17/12 15/18/12
f 15/19/13 11/14/13 9/13/13
f 14/20/14 16/21/14 15/19/14
f 17/22/15 11/23/15 18/24/15
f 11/14/16 16/21/16 19/25/16
f 20/26/17 7/8/17 21/27/17
f 14/20/18 22/28/18 16/21/18
f 16/21/19 22/28/19 23/29/19
f 21/27/20 24/30/20 20/26/20
f 24/30/21 25/31/21 20/26/21
f 25/32/22 26/33/22 22/28/22
f 26/33/23 27/34/23 22/28/23
f 25/31/24 24/30/24 28/35/24
f 18/24/25 29/36/25 30/37/25
f 26/38/26 28/35/26 31/39/26
f 24/30/27 21/27/27 28/35/27
f 29/36/28 32/40/28 30/37/28
f 21/27/29 7/8/29 33/41/29
f 27/42/30 31/43/30 34/44/30
f 27/34/31 32/45/31 29/46/31
f 28/35/32 21/27/32 35/47/32
f 30/37/33 36/48/33 37/49/33
f 38/50/34 39/51/34 34/44/34
f 39/52/35 40/53/35 34/54/35
f 33/41/36 41/55/36 35/47/36
f 42/56/37 40/57/37 36/48/37
f 43/58/38 44/59/38 39/51/38
f 44/60/39 45/61/39 40/57/39
f 44/62/40 46/63/40 45/64/40
f 47/65/41 46/63/41 44/62/41
f 48/66/42 49/67/42 47/65/42
f 50/68/43 45/61/43 51/69/43
f 37/49/44 36/48/44 52/70/44
f 49/67/45 1/71/45 46/63/45
f 49/72/46 53/73/46 2/74/46
f 49/67/47 2/75/47 1/71/47
f 51/69/48 52/70/48 36/48/48
f 54/76/49 1/1/49 4/4/49
f 55/77/50 54/76/50 4/4/50
f 51/69/51 55/78/51 52/70/51
f 5/7/52 53/73/52 7/8/52
f 55/78/53 12/79/53 52/70/53
f 52/70/54 12/79/54 17/22/54
f 10/12/55 3/3/55 6/6/55
f 55/77/56 10/12/56 12/80/56
f 37/49/57 17/22/57 18/24/57
f 6/81/58 5/7/58 8/9/58
f 10/12/59 9/11/59 12/80/59
f 8/9/60 7/8/61 13/16/62
f 9/11/63 8/10/63 15/82/63
f 29/46/64 22/28/64 27/34/64
f 12/79/65 11/23/65 17/22/65
f 13/16/66 7/8/66 20/26/66
f 11/14/67 15/19/67 16/21/67
f 13/16/68 20/26/68 14/17/68
f 18/24/69 11/23/69 19/83/69
f 19/25/70 16/21/70 23/29/70
f 20/26/71 25/31/71 14/17/71
f 14/17/72 25/31/72 22/84/72
f 43/58/73 35/85/73 41/86/73
f 19/25/74 23/29/74 29/46/74
f 18/24/75 19/83/75 29/36/75
f 25/31/76 28/35/76 26/38/76
f 26/33/77 31/87/77 27/34/77
f 31/39/78 28/35/78 35/47/78
f 18/24/79 30/37/79 37/49/79
f 27/34/80 34/88/80 32/45/80
f 31/43/81 35/85/81 38/50/81
f 31/43/82 38/50/82 34/44/82
f 21/27/83 33/41/83 35/47/83
f 32/40/84 34/89/84 42/56/84
f 30/37/85 32/40/85 42/56/85
f 38/50/86 43/58/86 39/51/86
f 42/90/87 34/91/87 40/92/87
f 48/93/88 33/41/88 53/73/88
f 30/37/89 42/56/89 36/48/89
f 39/51/90 44/59/90 40/94/90
f 36/48/91 40/57/91 50/68/91
f 41/86/92 47/95/92 43/58/92
f 43/96/93 47/65/93 44/62/93
f 40/57/94 45/61/94 50/68/94
f 54/97/95 46/63/95 1/71/95
f 41/98/96 48/66/96 47/65/96
f 47/65/97 49/67/97 46/63/97
f 33/41/98 7/8/98 53/73/98
f 36/48/99 50/68/99 51/69/99
f 51/99/100 45/64/100 54/97/100
f 48/66/101 53/100/101 49/67/101
f 51/69/102 54/101/102 55/78/102
f 2/74/103 53/73/103 5/7/103
f 10/12/104 4/4/104 3/3/104
f 55/77/105 4/4/105 10/12/105
f 37/49/106 52/70/106 17/22/106
f 29/46/107 23/29/107 22/28/107
f 43/58/108 38/50/108 35/85/108
f 48/93/109 41/55/109 33/41/109
f 54/97/110 45/64/110 46/63/110
