# Blender v2.79 (sub 0) OBJ File: 'Low-Poly_Models.blend'
# www.blender.org
mtllib Stone2.mtl
o Sphere.001
v -9.752159 0.607543 -2.027468
v -9.370586 1.162403 -2.641450
v -9.595091 0.108962 -1.296413
v -10.266367 1.055564 -1.898970
v -10.119523 0.434708 -1.267926
v -9.826988 0.211117 -0.453453
v -10.432543 0.977384 -1.229026
v -10.316149 1.150939 -0.638066
v -10.108590 1.824966 -1.938650
v -10.264357 1.769526 -1.334230
v -9.634328 0.852293 0.035910
v -9.931000 1.778113 -0.662081
v -9.492587 2.407542 -1.664144
v -8.930649 2.384580 -1.504430
v -8.982578 1.881549 -0.418561
v -9.103724 1.893132 -2.913324
v -8.758667 1.522176 -0.048216
v -8.356954 2.044999 -1.261507
v -8.493628 1.443733 -0.034991
v -8.432832 1.770293 -2.291054
v -8.104186 1.133296 -0.557032
v -8.083379 1.078998 -1.800206
v -8.243554 0.629822 -1.574872
v -8.678051 1.414971 -2.714532
v -8.714462 0.162673 -0.560773
v -9.008258 0.341151 -1.821008
vn -0.0658 -0.7196 -0.6912
vn -0.1493 -0.8315 -0.5350
vn -0.5482 -0.4220 -0.7221
vn -0.6332 -0.0560 -0.7720
vn -0.8436 -0.4677 -0.2638
vn -0.8714 -0.3969 0.2882
vn -0.9557 0.1842 -0.2294
vn -0.9602 0.1749 -0.2178
vn -0.9670 0.2219 0.1253
vn -0.7340 -0.2587 0.6279
vn -0.7812 0.4944 0.3811
vn -0.4945 0.7387 -0.4581
vn -0.2106 0.8667 0.4522
vn -0.0091 0.1363 0.9906
vn 0.1350 0.9303 -0.3411
vn 0.4186 0.8163 0.3982
vn 0.5805 0.7440 -0.3308
vn 0.2643 -0.4048 0.8754
vn 0.8163 0.4775 0.3250
vn 0.4047 0.8757 -0.2635
vn 0.6131 -0.3881 0.6881
vn 0.9461 -0.3224 0.0299
vn 0.0491 -0.6153 0.7868
vn 0.4439 -0.6499 -0.6170
vn 0.0325 -0.3589 -0.9328
vn 0.1634 -0.6602 -0.7331
vn -0.0325 -0.9932 0.1114
vn -0.5288 -0.8476 -0.0428
vn -0.8488 -0.5016 0.1672
vn -0.6960 0.1061 -0.7102
vn -0.2588 0.6103 0.7487
vn -0.5638 0.3744 0.7362
vn -0.6593 0.7450 -0.1016
vn -0.5464 0.7959 0.2608
vn 0.9222 0.3513 -0.1617
vn -0.3105 0.5068 0.8042
vn -0.0811 0.9058 0.4158
vn 0.1940 0.7600 0.6202
vn 0.3083 0.8401 0.4462
vn 0.9628 0.2703 0.0043
vn -0.4965 -0.7631 -0.4138
vn 0.8372 -0.5270 0.1460
vn 0.8455 0.0500 -0.5316
vn 0.6180 -0.5174 -0.5920
vn 0.4057 -0.8871 -0.2202
vn 0.2136 -0.9591 -0.1856
vn 0.6745 0.3248 -0.6630
vn -0.6474 -0.6132 -0.4526
usemtl Material.002
s off
f 26//1 1//1 2//1
f 26//2 3//2 1//2
f 1//3 4//3 2//3
f 2//4 4//4 16//4
f 4//5 5//5 7//5
f 7//6 6//6 8//6
f 9//7 4//7 10//7
f 4//8 7//8 10//8
f 10//9 7//9 8//9
f 6//10 11//10 8//10
f 10//11 8//11 12//11
f 16//12 9//12 13//12
f 13//13 12//13 15//13
f 11//14 19//14 17//14
f 13//15 14//15 16//15
f 15//16 19//16 14//16
f 14//17 18//17 16//17
f 19//18 11//18 25//18
f 18//19 19//19 21//19
f 16//20 18//20 20//20
f 19//21 25//21 21//21
f 22//22 21//22 23//22
f 11//23 6//23 25//23
f 24//24 23//24 26//24
f 24//25 2//25 16//25
f 24//26 26//26 2//26
f 25//27 6//27 3//27
f 3//28 6//28 5//28
f 5//29 6//29 7//29
f 4//30 9//30 16//30
f 17//31 15//31 12//31
f 11//32 12//32 8//32
f 9//33 10//33 13//33
f 10//34 12//34 13//34
f 22//35 20//35 18//35
f 11//36 17//36 12//36
f 13//37 15//37 14//37
f 15//38 17//38 19//38
f 14//39 19//39 18//39
f 18//40 21//40 22//40
f 1//41 3//41 5//41
f 21//42 25//42 23//42
f 20//43 22//43 24//43
f 22//44 23//44 24//44
f 25//45 26//45 23//45
f 25//46 3//46 26//46
f 24//47 16//47 20//47
f 1//48 5//48 4//48
