# Blender v2.79 (sub 0) OBJ File: 'torch.blend'
# www.blender.org
mtllib torch.mtl
o Cube_Cube.003
v 0.008171 -0.354748 0.623131
v -0.064227 0.713868 0.772392
v -0.691104 -0.605376 -0.017470
v 0.793231 -0.451046 -0.081429
v 0.750596 0.712365 -0.024636
v 0.006494 -0.680933 -0.790538
v -0.753714 0.651860 0.006506
v 0.010435 0.613578 -0.784488
v 0.000000 -2.500000 0.000000
v 1.230108 0.284485 1.244455
v 1.257186 -0.016888 -1.329633
v -1.170173 0.120946 1.190333
v 0.000000 2.500000 0.000000
v -1.205158 -0.091302 -1.269868
vt 0.880791 0.873669
vt 0.980716 0.667904
vt 0.980716 1.000000
vt 0.680590 0.876799
vt 0.205579 0.506340
vt 0.316563 0.375833
vt 0.316563 0.706295
vt 0.000000 0.467391
vt 0.194203 0.147595
vt 0.000000 0.139407
vt 0.319028 0.000000
vt 0.319028 0.375833
vt 0.856173 0.144157
vt 0.662787 0.160194
vt 0.902958 0.000000
vt 0.902958 0.158018
vt 0.969437 0.000000
vt 0.969437 0.221866
vt 0.902958 0.282287
vt 0.887742 0.533744
vt 1.000000 0.667904
vt 0.680590 0.563781
vt 1.000000 0.327560
vt 0.512399 0.546296
vt 0.545905 0.327560
vt 0.680590 0.630765
vt 0.319028 0.630765
vt 0.489841 0.232607
vt 0.493635 0.000000
vt 0.662787 0.327560
vt 0.319028 0.327560
vt 0.530607 0.755200
vt 0.644003 0.630765
vt 0.644003 0.962935
vt 0.319028 0.724471
vn 0.1357 0.3891 0.9111
vn -0.1962 0.3951 0.8974
vn -0.0613 0.6489 0.7584
vn 0.3295 -0.2645 0.9063
vn 0.0343 -0.7295 0.6831
vn -0.3246 -0.2627 0.9086
vn 0.7872 -0.6115 0.0799
vn 0.9127 -0.3446 0.2194
vn 0.9261 -0.3627 -0.1040
vn -0.9264 -0.3394 -0.1633
vn -0.7801 -0.6223 0.0648
vn -0.9129 -0.3308 0.2389
vn 0.0002 -0.6305 -0.7762
vn 0.1662 -0.3935 -0.9042
vn -0.1811 -0.3914 -0.9022
vn 0.9001 0.3808 -0.2117
vn 0.9135 0.3816 0.1414
vn 0.7583 0.6483 -0.0679
vn -0.2057 0.3748 -0.9040
vn 0.1440 0.3807 -0.9134
vn -0.0376 0.6100 -0.7915
vn -0.9150 0.3726 -0.1548
vn -0.9205 0.3758 0.1068
vn -0.8246 0.5644 -0.0370
usemtl torch
s off
f 2/1/1 13/2/1 12/3/1
f 2/1/2 10/4/2 13/2/2
f 2/1/3 12/3/3 10/4/3
f 1/5/4 12/6/4 9/7/4
f 1/5/5 10/8/5 12/6/5
f 1/5/6 9/7/6 10/8/6
f 4/9/7 11/10/7 10/11/7
f 4/9/8 9/12/8 11/10/8
f 4/9/9 10/11/9 9/12/9
f 3/13/10 9/14/10 12/15/10
f 3/16/11 12/17/11 14/18/11
f 3/13/12 14/19/12 9/14/12
f 6/20/13 14/21/13 11/22/13
f 6/20/14 9/23/14 14/21/14
f 6/20/15 11/22/15 9/23/15
f 5/24/16 13/25/16 10/26/16
f 5/24/17 11/27/17 13/25/17
f 5/24/18 10/26/18 11/27/18
f 8/28/19 13/29/19 11/30/19
f 8/28/20 14/31/20 13/29/20
f 8/28/21 11/30/21 14/31/21
f 7/32/22 12/33/22 13/34/22
f 7/32/23 13/34/23 14/35/23
f 7/32/24 14/35/24 12/33/24
