# Blender v2.79 (sub 0) OBJ File: 'Low-Poly_Models.blend'
# www.blender.org
mtllib Tree_Round.mtl
o Cylinder.014
v 2.176705 -0.471334 -18.047010
v 2.176705 1.854742 -17.988899
v 2.354071 1.854742 -17.886497
v 2.404396 -0.471334 -17.915552
v 2.354071 1.854742 -17.681692
v 2.404396 -0.471334 -17.652637
v 2.176704 1.779704 -17.579290
v 2.176704 -0.471334 -17.521181
v 1.999338 1.854742 -17.681692
v 1.949013 -0.471334 -17.652637
v 1.980634 2.216793 -17.780821
v 2.164735 2.285836 -17.658072
v 2.163503 2.430022 -17.824390
v 2.042296 2.426360 -17.912521
v 1.999338 1.854742 -17.886497
v 1.949013 -0.471334 -17.915552
v 2.189906 2.351020 -18.112398
v 2.055497 2.386860 -18.056526
v 2.126629 3.204446 -18.164967
v 2.182158 3.189639 -18.188051
v 2.360805 2.187617 -17.751572
v 2.297912 2.394183 -17.880262
v 2.188674 2.148480 -18.090570
v 1.992604 2.180977 -17.997072
v 2.372775 2.151800 -17.967821
v 2.311113 2.354682 -18.024267
v 2.148590 3.502149 -18.152252
v 2.179767 3.503883 -18.166019
v 2.232234 3.191151 -18.151640
v 2.226781 3.207471 -18.092146
v 2.171251 3.222277 -18.069061
v 2.121175 3.220765 -18.105473
v 2.207882 3.504732 -18.145576
v 2.145528 3.511312 -18.118851
v 2.173642 3.522208 -18.099215
v 2.204820 3.513895 -18.112173
v 2.162910 2.252722 -17.505980
v 2.271315 2.192396 -17.557674
v 2.169528 1.955699 -17.425846
v 2.039789 2.010587 -17.500751
v 2.168685 2.147993 -17.156536
v 2.089395 2.181539 -17.202314
v 2.164641 2.337708 -17.205509
v 2.230893 2.292653 -17.237103
v 2.299266 2.010587 -17.500751
v 2.061122 2.208527 -17.573845
v 2.152472 2.348438 -16.996664
v 2.112898 2.354120 -17.035652
v 2.165638 2.429342 -17.073330
v 2.202321 2.396481 -17.070614
v 2.102433 2.302511 -17.246986
v 2.247976 2.181539 -17.202314
v 2.128418 2.548007 -16.898052
v 2.094966 2.552811 -16.931011
v 2.139548 2.616398 -16.962860
v 2.170556 2.588620 -16.960564
v 2.131026 2.401573 -17.089781
v 2.202513 2.350474 -17.021368
v 2.170718 2.549728 -16.918934
v 2.110289 2.592924 -16.976765
vn 0.4999 0.0216 -0.8658
vn 0.9998 0.0216 0.0000
vn 0.4995 0.0223 0.8660
vn 0.4934 0.0216 0.8695
vn 0.4999 0.0224 0.8658
vn -0.4934 0.0216 0.8695
vn -0.4995 0.0223 0.8660
vn -0.4999 0.0224 0.8658
vn -0.5524 0.5934 0.5854
vn -0.5391 0.5859 0.6051
vn -0.4976 0.5618 0.6609
vn -0.9998 0.0216 0.0000
vn -0.4999 0.0216 -0.8658
vn -0.0000 -1.0000 -0.0000
vn -0.4019 -0.0860 -0.9116
vn 0.5198 0.6027 0.6055
vn 0.5014 0.6204 0.6031
vn 0.4279 0.6845 0.5902
vn -0.4284 -0.1113 -0.8967
vn -0.4247 -0.1089 -0.8988
vn -0.4037 -0.0956 -0.9099
vn 0.9560 0.2933 0.0054
vn 0.9560 0.2932 0.0059
vn 0.9559 0.2937 0.0043
vn 0.5679 -0.0736 -0.8198
vn 0.5710 -0.0762 -0.8174
vn 0.5544 -0.0624 -0.8299
vn -0.9653 0.2348 -0.1142
vn -0.9630 0.2384 -0.1258
vn -0.9564 0.2473 -0.1555
vn -0.3713 0.0626 -0.9264
vn -0.4015 0.0680 -0.9133
vn -0.3690 0.0622 -0.9274
vn 0.9927 0.1032 0.0627
vn 0.4293 0.2627 0.8641
vn 0.4292 0.2627 0.8642
vn -0.5748 0.2466 0.7803
vn -0.9913 0.0716 -0.1105
vn -0.9907 0.0774 -0.1121
vn 0.5881 -0.0673 -0.8060
vn -0.0286 0.9544 -0.2972
vn 0.0194 0.8622 -0.5063
vn -0.0035 0.9428 -0.3335
vn 0.9946 0.0759 0.0704
vn 0.4024 0.0884 0.9112
vn -0.5880 0.0862 0.8043
vn -0.5920 0.0854 0.8014
vn -0.5876 0.0863 0.8045
vn -0.9913 0.0718 -0.1107
vn -0.9906 0.0779 -0.1122
vn 0.5858 0.0611 -0.8081
vn 0.5857 0.0611 -0.8082
vn -0.9988 -0.0470 -0.0158
vn -0.9986 -0.0420 -0.0329
vn -0.9981 -0.0372 -0.0491
vn 0.5030 -0.2738 -0.8198
vn 0.5152 -0.2827 -0.8091
vn 0.4829 -0.2594 -0.8364
vn 0.9993 -0.0293 0.0223
vn 0.9985 -0.0363 0.0398
vn 0.9998 -0.0202 0.0000
vn -0.4686 -0.2854 -0.8360
vn -0.4609 -0.2812 -0.8417
vn -0.4506 -0.2755 -0.8491
vn 0.5298 0.8233 0.2038
vn 0.5297 0.8233 0.2039
vn 0.5185 0.8266 0.2189
vn -0.5798 -0.5487 0.6022
vn -0.5620 -0.6740 0.4795
vn 0.3971 0.8879 -0.2323
vn 0.4498 0.8599 -0.2414
vn 0.3870 0.8928 -0.2304
vn 0.9343 0.1399 0.3280
vn 0.9419 0.1180 0.3144
vn 0.9645 0.0354 0.2616
vn 0.5813 -0.5211 0.6249
vn -0.4761 0.8563 0.2002
vn -0.4773 0.8560 0.1986
vn -0.4902 0.8529 0.1798
vn -0.9517 0.1142 0.2851
vn -0.9615 0.0809 0.2627
vn -0.9037 0.2306 0.3607
vn -0.5897 -0.5213 0.6168
vn -0.6286 -0.5130 0.5846
vn -0.5812 -0.5229 0.6235
vn 0.3830 0.8029 -0.4568
vn 0.5615 0.6896 -0.4573
vn 0.3428 0.8224 -0.4541
vn -0.2592 0.9355 -0.2403
vn -0.3283 0.9104 -0.2517
vn -0.3425 0.9046 -0.2539
vn -0.9868 0.1378 0.0851
vn 0.9825 0.1729 0.0698
vn 0.5624 -0.6721 0.4816
vn 0.5624 -0.6721 0.4817
vn -0.6738 -0.3910 0.6270
vn -0.6738 -0.3910 0.6269
vn 0.4940 0.4922 -0.7168
vn 0.4940 0.4922 -0.7167
vn -0.1678 0.8417 -0.5132
vn -0.3271 0.7840 -0.5276
vn -0.3639 0.7668 -0.5288
vn -0.9879 0.1547 0.0111
vn -0.9682 0.2499 -0.0131
vn -0.9454 0.3242 -0.0324
vn 0.9825 0.1661 0.0847
vn 0.9867 0.1325 0.0943
vn 0.9809 0.1764 0.0818
vn 0.5573 -0.5234 0.6446
vn 0.4252 -0.5506 0.7184
vn 0.3860 -0.5559 0.7362
vn 0.3626 0.6507 0.6672
vn 0.4190 0.6060 0.6761
vn 0.4602 0.5701 0.6806
vn -0.5403 0.6478 0.5370
vn -0.6133 0.6527 0.4448
vn -0.6815 0.6481 0.3400
vn 0.0011 0.5086 -0.8610
vn -0.9606 0.0566 -0.2721
vn 0.4248 -0.3594 0.8309
vn 0.9894 0.1080 0.0970
vn 0.4930 0.0215 0.8697
vn -0.4930 0.0215 0.8697
vn -0.5849 0.6107 0.5338
vn -0.4019 -0.0859 -0.9116
vn 0.5678 0.5528 0.6099
vn -0.4435 -0.1210 -0.8881
vn 0.9562 0.2927 0.0074
vn 0.5875 -0.0902 -0.8042
vn -0.9694 0.2278 -0.0914
vn -0.4062 0.0689 -0.9112
vn 0.0209 0.9810 -0.1927
vn -0.0052 0.9872 -0.1593
vn -0.1742 0.9454 -0.2753
vn -0.5925 0.0853 0.8010
vn -0.9987 -0.0516 0.0000
vn 0.5336 -0.2960 -0.7923
vn 0.9970 -0.0456 0.0627
vn -0.4784 -0.2907 -0.8286
vn 0.5437 0.8187 0.1848
vn 0.4633 0.8521 -0.2437
vn 0.8791 0.2602 0.3993
vn -0.4655 0.8585 0.2153
vn -0.9772 0.0076 0.2120
vn -0.6397 -0.5103 0.5749
vn 0.6132 0.6470 -0.4532
vn -0.2486 0.9388 -0.2385
vn -0.6739 -0.3910 0.6269
vn -0.1407 0.8490 -0.5094
vn -0.9932 0.1148 0.0211
vn 0.9887 0.1114 0.1002
vn 0.5814 -0.5167 0.6285
vn 0.2934 0.6991 0.6520
vn -0.4906 0.6401 0.5913
usemtl Material.103
s 1
f 2//1 4//1 1//1
f 3//2 6//2 4//2
f 6//3 7//4 8//5
f 7//6 10//7 8//8
f 11//9 13//10 14//11
f 9//12 16//12 10//12
f 15//13 1//13 16//13
f 8//14 10//14 16//14
f 18//15 20//15 17//15
f 12//16 22//17 13//18
f 23//19 18//20 17//21
f 25//22 22//23 21//24
f 23//25 26//26 25//27
f 24//28 14//29 18//30
f 19//31 28//32 20//33
f 22//34 29//34 30//34
f 13//35 30//36 31//36
f 14//37 31//37 32//37
f 14//38 19//39 18//38
f 17//40 29//40 26//40
f 34//41 35//42 36//43
f 30//44 33//44 36//44
f 31//45 36//45 35//45
f 31//46 34//47 32//48
f 32//49 27//50 19//39
f 29//51 28//52 33//52
f 15//53 11//54 24//55
f 2//56 25//57 3//58
f 3//59 21//60 5//61
f 2//62 24//63 23//64
f 12//65 38//66 21//67
f 7//68 40//68 9//68
f 39//69 42//69 40//69
f 37//70 44//71 38//72
f 21//73 45//74 5//75
f 7//76 45//76 39//76
f 12//77 46//78 37//79
f 11//80 40//81 46//82
f 41//83 48//84 42//85
f 43//86 50//87 44//88
f 37//89 51//90 43//91
f 46//92 42//92 51//92
f 38//93 52//93 45//93
f 39//94 52//95 41//95
f 47//96 54//97 48//96
f 49//98 56//99 50//98
f 43//100 57//101 49//102
f 51//103 48//104 57//105
f 44//106 58//107 52//108
f 41//109 58//110 47//111
f 53//112 56//113 55//114
f 54//115 55//116 60//117
f 49//118 60//118 55//118
f 57//119 54//119 60//119
f 47//120 59//120 53//120
f 50//121 59//121 58//121
f 2//1 3//1 4//1
f 3//2 5//2 6//2
f 6//3 5//122 7//4
f 7//6 9//123 10//7
f 11//9 12//124 13//10
f 9//12 15//12 16//12
f 15//13 2//13 1//13
f 16//14 1//14 8//14
f 1//14 4//14 8//14
f 4//14 6//14 8//14
f 18//15 19//125 20//15
f 12//16 21//126 22//17
f 23//19 24//127 18//20
f 25//22 26//128 22//23
f 23//25 17//129 26//26
f 24//28 11//130 14//29
f 19//31 27//131 28//32
f 22//34 26//34 29//34
f 13//35 22//35 30//36
f 14//37 13//37 31//37
f 14//38 32//49 19//39
f 17//40 20//40 29//40
f 36//43 33//132 34//41
f 33//132 28//133 34//41
f 28//133 27//134 34//41
f 30//44 29//44 33//44
f 31//45 30//45 36//45
f 31//46 35//135 34//47
f 32//49 34//50 27//50
f 29//51 20//51 28//52
f 15//53 9//136 11//54
f 2//56 23//137 25//57
f 3//59 25//138 21//60
f 2//62 15//139 24//63
f 12//65 37//140 38//66
f 7//68 39//68 40//68
f 39//69 41//69 42//69
f 37//70 43//141 44//71
f 21//73 38//142 45//74
f 7//76 5//76 45//76
f 12//77 11//143 46//78
f 11//80 9//144 40//81
f 41//83 47//145 48//84
f 43//86 49//146 50//87
f 37//89 46//147 51//90
f 46//92 40//92 42//92
f 38//93 44//93 52//93
f 39//94 45//94 52//95
f 47//96 53//148 54//97
f 49//98 55//99 56//99
f 43//100 51//149 57//101
f 51//103 42//150 48//104
f 44//106 50//151 58//107
f 41//109 52//152 58//110
f 53//112 59//153 56//113
f 54//115 53//154 55//116
f 49//118 57//118 60//118
f 57//119 48//119 54//119
f 47//120 58//120 59//120
f 50//121 56//121 59//121
